<?xml version="1.0" ?><!DOCTYPE svg  PUBLIC '-//W3C//DTD SVG 1.1//EN'  'http://www.w3.org/Graphics/SVG/1.1/DTD/svg11.dtd'><svg enable-background="new 0 0 64 64" height="64px" id="Icons" version="1.1" viewBox="0 0 64 64" width="64px" xml:space="preserve" xmlns="http://www.w3.org/2000/svg" xmlns:xlink="http://www.w3.org/1999/xlink"><g id="site_map"><g><path d="M57,43h-6h-6c-1.1,0-2,0.9-2,2v12c0,1.1,0.9,2,2,2h12c1.1,0,2-0.9,2-2V45C59,43.9,58.1,43,57,43z M58,57    c0,0.552-0.448,1-1,1H45c-0.552,0-1-0.448-1-1V45c0-0.552,0.448-1,1-1h12c0.552,0,1,0.448,1,1V57z" fill="#37474F"/><path d="M51,48c-1.657,0-3,1.344-3,3s1.343,3,3,3s3-1.344,3-3S52.657,48,51,48z M51,53c-1.103,0-2-0.897-2-2    s0.897-2,2-2s2,0.897,2,2S52.103,53,51,53z" fill="#37474F"/><path d="M24,45v12c0,1.1,0.9,2,2,2h12c1.1,0,2-0.9,2-2V45c0-1.1-0.9-2-2-2h-6h-6C24.9,43,24,43.9,24,45z M38,44    c0.552,0,1,0.448,1,1v12c0,0.552-0.448,1-1,1H26c-0.551,0-1-0.448-1-1V45c0-0.552,0.449-1,1-1H38z" fill="#37474F"/><path d="M32,54c1.657,0,3-1.344,3-3s-1.343-3-3-3s-3,1.344-3,3S30.343,54,32,54z M32,49c1.103,0,2,0.897,2,2    s-0.897,2-2,2c-1.103,0-2-0.897-2-2S30.897,49,32,49z" fill="#37474F"/><path d="M5,45v12c0,1.1,0.9,2,2,2h12c1.1,0,2-0.9,2-2V45c0-1.1-0.9-2-2-2h-6H7C5.9,43,5,43.9,5,45z M19,44    c0.551,0,1,0.448,1,1v12c0,0.552-0.449,1-1,1H7c-0.551,0-1-0.448-1-1V45c0-0.552,0.449-1,1-1H19z" fill="#37474F"/><path d="M53,33H34v-8h11c1.1,0,2-0.9,2-2V7c0-1.1-0.9-2-2-2H19c-1.1,0-2,0.9-2,2v16c0,1.1,0.9,2,2,2h11v8H11v8l2,2    l2-2v-4h15v4l2,2l2-2v-4h15v4l2,2l2-2V33z M19,24c-0.551,0-1-0.449-1-1V7c0-0.551,0.449-1,1-1h26c0.552,0,1,0.449,1,1v16    c0,0.551-0.448,1-1,1H34h-4H19z M52,40.586l-1,1l-1-1V37v-1h-1H34h-1v1v3.586l-1,1l-1-1V37v-1h-1H15h-1v1v3.586l-1,1l-1-1V34h18h1    v-1v-8h2v8v1h1h18V40.586z" fill="#37474F"/><path d="M13,54c1.657,0,3-1.344,3-3s-1.343-3-3-3s-3,1.344-3,3S11.343,54,13,54z M13,49c1.103,0,2,0.897,2,2    s-0.897,2-2,2s-2-0.897-2-2S11.897,49,13,49z" fill="#37474F"/><rect fill="#37474F" height="1" width="20" x="22" y="19"/><rect fill="#37474F" height="1" width="20" x="22" y="14"/><rect fill="#37474F" height="1" width="20" x="22" y="9"/><g><g><path d="M17.5,57H9c-0.276,0-0.5-0.224-0.5-0.5S8.724,56,9,56h8.5c0.276,0,0.5-0.225,0.5-0.5V47      c0-0.276,0.224-0.5,0.5-0.5S19,46.724,19,47v8.5C19,56.327,18.327,57,17.5,57z" fill="#37474F"/></g><g><path d="M43.5,23H35c-0.276,0-0.5-0.224-0.5-0.5S34.724,22,35,22h8.5c0.276,0,0.5-0.225,0.5-0.5V8      c0-0.276,0.224-0.5,0.5-0.5S45,7.724,45,8v13.5C45,22.327,44.327,23,43.5,23z" fill="#37474F"/></g><g><path d="M36.5,57H28c-0.276,0-0.5-0.224-0.5-0.5S27.724,56,28,56h8.5c0.276,0,0.5-0.225,0.5-0.5V47      c0-0.276,0.224-0.5,0.5-0.5S38,46.724,38,47v8.5C38,56.327,37.327,57,36.5,57z" fill="#37474F"/></g><g><path d="M55.5,57H47c-0.276,0-0.5-0.224-0.5-0.5S46.724,56,47,56h8.5c0.276,0,0.5-0.225,0.5-0.5V47      c0-0.276,0.224-0.5,0.5-0.5S57,46.724,57,47v8.5C57,56.327,56.327,57,55.5,57z" fill="#37474F"/></g></g></g></g></svg>