<?xml version="1.0" ?><!DOCTYPE svg  PUBLIC '-//W3C//DTD SVG 1.1//EN'  'http://www.w3.org/Graphics/SVG/1.1/DTD/svg11.dtd'><svg enable-background="new 0 0 128 128" height="128px" id="Layer_1" version="1.1" viewBox="0 0 128 128" width="128px" xml:space="preserve" xmlns="http://www.w3.org/2000/svg" xmlns:xlink="http://www.w3.org/1999/xlink"><g><path d="M80.406,73.229H19.014c-1.104,0-2-0.896-2-2s0.896-2,2-2h61.393c1.104,0,2,0.896,2,2S81.511,73.229,80.406,73.229z    M87.627,58.714H19.014c-1.104,0-2-0.896-2-2s0.896-2,2-2h68.613c1.104,0,2,0.896,2,2S88.731,58.714,87.627,58.714z"/></g><g><path d="M76.475,113.98c-28.276,0-51.281-22.466-51.281-50.081c0-27.612,23.005-50.077,51.281-50.077   c11.827,0,23.38,4.034,32.528,11.358c0.862,0.69,1.002,1.949,0.312,2.812c-0.691,0.863-1.949,1.002-2.812,0.312   c-8.442-6.759-19.106-10.481-30.028-10.481c-26.071,0-47.281,20.67-47.281,46.077c0,25.409,21.21,46.081,47.281,46.081   c10.932,0,21.595-3.723,30.027-10.483c0.86-0.69,2.118-0.554,2.812,0.31c0.69,0.861,0.553,2.121-0.31,2.813   C99.864,109.945,88.313,113.98,76.475,113.98z"/></g></svg>