<?xml version="1.0" encoding="utf-8"?>
<!-- Generator: Adobe Illustrator 19.2.1, SVG Export Plug-In . SVG Version: 6.00 Build 0)  -->
<svg version="1.1" id="Layer_1" xmlns="http://www.w3.org/2000/svg" xmlns:xlink="http://www.w3.org/1999/xlink" x="0px" y="0px"
	 viewBox="0 0 512 512" style="enable-background:new 0 0 512 512;" xml:space="preserve">
<style type="text/css">
	.st0{fill:#6A6E7C;}
</style>
<g>
	<path class="st0" d="M3,263.2c-4-4.2-3.9-10.9,0.3-14.9l191.5-185c4.2-4,10.9-3.9,14.9,0.3c4,4.2,3.9,10.9-0.3,14.9l-191.5,185
		c-2,2-4.7,3-7.3,3C7.9,266.5,5.1,265.5,3,263.2z"/>
	<path class="st0" d="M194.7,448.5L3.2,263.5c-3-3-4-7.5-2.4-11.5c1.6-4,5.5-6.6,9.8-6.6l318.8-0.1c100.8,0,182.7,82,182.7,182.7
		l0,12.9c0,5.9-4.8,10.5-10.6,10.5S491,446.8,491,441l0-12.8c0-89.1-72.5-161.6-161.6-161.6l-292.7,0.1l172.7,166.9
		c4.2,4,4.3,10.7,0.3,14.9c-2.1,2.1-4.8,3.2-7.6,3.2C199.5,451.6,196.9,450.6,194.7,448.5z"/>
</g>
</svg>
