<?xml version="1.0" ?><!DOCTYPE svg  PUBLIC '-//W3C//DTD SVG 1.1//EN'  'http://www.w3.org/Graphics/SVG/1.1/DTD/svg11.dtd'><svg enable-background="new 0 0 512 512" id="Laag_1" version="1.1" viewBox="0 0 512 512" xml:space="preserve" xmlns="http://www.w3.org/2000/svg" xmlns:xlink="http://www.w3.org/1999/xlink"><g id="_x36_K62OT.tif"><g><path d="M203,137.8    c-3.2,0-6.3,0-9.5,0c-1,0-1.9,0.2-2.8,0.8c-7.8,5.5-14,12.4-18,21.1c-5.1,10.8-6.2,22.2-4.9,33.9c0.6,5.2,1.2,10.5,3.5,15.3    c14.8,31.7,34.5,59.8,61,82.9c20.8,18.2,44,32.2,70.2,41c5.2,1.7,10.4,3.9,16.1,3.7c6.3-0.2,12.5-0.7,18.6-2.1    c8.7-1.9,16.9-5,23.7-10.9c10.6-9.2,14.5-21.1,13.9-34.8c-0.1-2.5-1.1-3.7-3.2-4.9c-12.7-6.7-25.3-13.6-38-20.5    c-2-1.1-4.1-2-6.4-2.5c-3.3-0.7-6.2,0.3-7.6,2.7c-0.8,1.3-1.8,2.4-2.8,3.6c-5.8,6.4-11.5,12.9-17.3,19.3c-0.8,1-1.5,1.2-2.8,0.8    c-20.1-6.9-38.2-17.1-53-32.6c-9.8-10.2-17.1-22-21.8-35.4c-1.1-3.1-1.1-5.4,1.8-7.4c1.7-1.2,2.9-3,4.5-4.4c3.8-3.2,6-7.5,7.8-12    c1.9-4.6,2.3-8.9-0.2-13.8c-7.1-13.8-13.6-27.9-20.3-41.9c-0.8-1.7-1.7-2.1-3.4-2.1C209,137.9,206,137.8,203,137.8z M118.5,358.4    c-25.6-30.9-40.9-70.5-40.9-113.7c0-98.5,79.9-178.4,178.4-178.4s178.4,79.9,178.4,178.4S354.5,423.1,256,423.1    c-23.7,0-46.3-4.6-67-13 M118.4,358.3l-15.7,87.5 M102.8,445.8l86.2-35.7" fill="none" stroke="#646167" stroke-linecap="round" stroke-miterlimit="10" stroke-width="7"/></g></g></svg>